<svg width="33" height="35" viewBox="0 0 33 35" fill="none" xmlns="http://www.w3.org/2000/svg">
<path d="M29.889 2.61733C29.8087 2.43671 29.6297 2.3203 29.432 2.3203H28.698L26.9294 1.85062C26.8743 1.83599 26.8171 1.83089 26.7603 1.83554L25.2781 1.95681L24.4064 1.16469C24.3178 1.08417 24.2032 1.03812 24.0835 1.03492L22.7847 1.00018C22.5803 0.994713 22.3932 1.11423 22.3122 1.30197L21.7212 2.67203L20.5566 4.83949L19.3099 5.69602L17.5314 6.69246C17.4754 6.72382 17.426 6.76567 17.3858 6.81572L16.1869 8.30976C16.1421 8.36558 16.1098 8.43036 16.0922 8.49973L15.7993 9.65396L15.0765 11.5735C15.0467 11.6527 15.0375 11.7381 15.0496 11.8218L15.4171 14.3457L14.0451 15.9903L13.1787 16.5391C13.1446 16.5607 13.1133 16.5863 13.0853 16.6155L11.7393 18.0197L10.2116 18.2385C10.1135 18.2525 10.0218 18.2954 9.9481 18.3617L8.98231 19.2303C8.97314 19.2385 8.96429 19.2471 8.95576 19.256L8.92244 19.2908C8.89052 19.3241 8.86335 19.3616 8.84172 19.4024L7.70268 21.548L6.54379 22.3116C6.47218 22.3588 6.41392 22.4236 6.37458 22.4998L5.6752 23.8548C5.64284 23.9175 5.62411 23.9864 5.62026 24.0568L5.55831 25.1876L5.12541 26.232L4.64662 26.4949C4.58409 26.5293 4.52963 26.5766 4.4869 26.6337L3.42121 28.0583C3.39726 28.0903 3.37724 28.125 3.36157 28.1618L2.6955 29.7253C2.6605 29.8075 2.64814 29.8975 2.65972 29.9861L2.7388 30.5912L2.2298 31.5414L1.57614 32.0684C1.47137 32.1529 1.40507 32.276 1.39223 32.41L1.29232 33.4523C1.27888 33.5926 1.32524 33.732 1.42 33.8363C1.51477 33.9405 1.64913 34 1.79004 34H1.82335C1.83031 34 1.83726 33.9999 1.8442 33.9996L6.00715 33.8258C6.22148 33.8169 6.40623 33.6722 6.4663 33.4663L6.67199 32.7612L7.41043 31.8303C7.45812 31.7702 7.49134 31.6999 7.5075 31.6248L8.13986 28.689L10.6525 26.3994C10.7173 26.3404 10.7654 26.2655 10.7921 26.182L11.6101 23.6216L11.9536 23.5221C12.1068 23.4777 12.2296 23.3628 12.2842 23.2129L12.8163 21.7522L13.9058 21.5793L14.4328 21.8267C14.4992 21.8579 14.5718 21.8741 14.6452 21.8741H15.4778C15.5984 21.8741 15.7149 21.8305 15.8059 21.7514L16.2773 21.3415L17.2402 21.2825C17.5094 21.2659 17.717 21.0389 17.7094 20.7693L17.6893 20.0544C17.8568 19.9753 17.9735 19.8058 17.976 19.6084L18.0057 17.2559L20.6479 15.7692L22.3666 15.4372C22.3968 15.4313 22.4264 15.4227 22.4551 15.4114L23.9538 14.8208C24.0529 14.7817 24.1369 14.712 24.1936 14.6218L24.8074 13.6461L26.7899 12.8382C26.9681 12.7655 27.0888 12.5971 27.1003 12.405L27.1772 11.1213L27.8325 10.989C27.9255 10.9702 28.0113 10.9254 28.0798 10.8596L28.7999 10.1685L31.0105 9.81119C31.1863 9.78276 31.3338 9.66292 31.3975 9.49659L31.7306 8.62797C31.7999 8.44723 31.7586 8.24273 31.6247 8.10299L31.2473 7.70921L30.6599 5.51608L30.5634 4.20808C30.5592 4.15069 30.5451 4.09446 30.5217 4.04187L29.889 2.61733Z" stroke="#0DB04A" stroke-linecap="round" stroke-linejoin="round"/>
</svg>
