<svg width="21" height="34" viewBox="0 0 21 34" fill="none" xmlns="http://www.w3.org/2000/svg">
<path d="M15.6425 1.48643C15.6956 1.21548 15.519 0.952762 15.2481 0.899599L13.2592 0.509356C13.1419 0.486349 13.0203 0.506094 12.9164 0.565017L11.7024 1.25313L9.97352 0.90034C9.93551 0.892583 9.89672 0.889276 9.85794 0.890488L2.36132 1.12462C2.10159 1.13274 1.89137 1.33844 1.87762 1.59793L1.72462 4.48574C1.72273 4.52154 1.72468 4.55743 1.73046 4.59281L2.34219 8.33743L2.34247 8.33914L3.46626 15.3716L1.69043 19.3728C1.67561 19.4062 1.6645 19.4411 1.65729 19.4769L0.509841 25.1745C0.489852 25.2737 0.500467 25.3767 0.540281 25.4698L2.32816 29.6501L2.18434 31.5575C2.16754 31.7804 2.30071 31.9874 2.51053 32.0644L6.33535 33.4693C6.44846 33.5109 6.57276 33.5102 6.6854 33.4674L10.5867 31.9845C10.6254 31.9697 10.6622 31.9502 10.6962 31.9264L13.1008 30.2397L19.8604 27.3725C19.9908 27.3171 20.0917 27.2091 20.1378 27.0751C20.184 26.9411 20.1712 26.7938 20.1025 26.6699L19.1276 24.9102L18.0101 21.7937L17.6492 19.4368L18.6231 15.0798C18.6503 14.9582 18.6311 14.8308 18.5693 14.7226L17.5489 12.9379L17.1053 9.16582V5.52682C17.1053 5.42618 17.0749 5.32788 17.0181 5.24478L15.3767 2.84201L15.6425 1.48643Z" stroke="#0DB04A" stroke-linecap="round" stroke-linejoin="round"/>
</svg>
