<svg width="17" height="16" viewBox="0 0 17 16" fill="none" xmlns="http://www.w3.org/2000/svg">
<path d="M14.9354 0H1.27851C0.609051 0 0.0734863 0.535565 0.0734863 1.13808V14.8619C0.0734863 15.4644 0.609051 16 1.27851 16H14.9354C15.6049 16 16.1404 15.4644 16.1404 14.8619V1.13808C16.1404 0.535565 15.6049 0 14.9354 0ZM4.82662 13.6569H2.48353V6.0251H4.82662V13.6569ZM3.68855 4.95397C2.95215 4.95397 2.28269 4.35146 2.28269 3.54812C2.28269 2.74477 2.8852 2.14226 3.68855 2.14226C4.42495 2.14226 5.09441 2.74477 5.09441 3.54812C5.09441 4.35146 4.42495 4.95397 3.68855 4.95397ZM13.7973 13.59H11.4542V9.841C11.4542 8.97071 11.4542 7.76569 10.1823 7.76569C8.91031 7.76569 8.77641 8.76987 8.77641 9.70711V13.523H6.43332V6.0251H8.64252V7.02929H8.70947C9.0442 6.42678 9.84754 5.75732 10.9856 5.75732C13.3957 5.75732 13.8643 7.36402 13.8643 9.43933V13.59H13.7973Z" fill="#1D4138"/>
</svg>
