<svg width="101" height="48" viewBox="0 0 101 48" fill="none" xmlns="http://www.w3.org/2000/svg">
<g clip-path="url(#clip0_3403_1411)">
<path d="M3.76452 0.519531C4.89864 15.6049 20.0523 15.7061 26.7457 20.673C34.3832 26.3385 35.6262 39.8543 41.1297 47.3906H32.8036C29.4822 40.5783 30.2619 29.9257 22.0168 22.6956C18.8828 19.9489 14.1792 17.6655 9.82245 15.5441C5.25052 13.3138 2.04815 10.2558 0.00268555 5.63826V0.519531H3.76452Z" fill="#FEFEFE"/>
<path d="M12.2069 0.519531C12.2777 4.81046 13.3334 8.07105 16.4294 10.0304C20.9811 12.9138 26.7504 11.9417 31.4388 14.3416C40.2485 18.8503 40.775 29.3713 46.9064 36.6975V47.3906C37.9271 38.0468 38.5397 21.0805 25.5758 15.7491C21.2545 13.972 16.6446 14.4733 12.4423 11.2937C9.56395 9.11404 7.65265 5.22309 7.98682 0.519531H12.2069Z" fill="#FEFEFE"/>
<path d="M20.2597 0.519605C20.9053 12.719 31.3402 7.46862 39.3727 13.5088C42.7447 16.0429 44.7142 18.4023 46.9065 22.0805V28.5486C43.9851 23.8577 39.1373 14.5062 30.606 12.3367C24.2038 10.709 16.427 10.5191 16.427 1.20818V0.519605C17.2877 0.522136 18.999 0.514542 20.2572 0.519605" fill="#FEFEFE"/>
<path d="M23.4648 0.519531H26.4546C26.7077 3.69912 30.7632 7.18502 34.2137 8.50394C37.7907 9.87096 41.7373 9.83299 44.5524 12.8809C44.5524 12.8936 46.9067 15.3492 46.9067 15.3618V18.6832C44.6587 16.2403 42.6563 12.762 39.4691 11.4532C33.1935 8.87861 23.9838 8.93177 23.4648 0.519531Z" fill="#FEFEFE"/>
<path d="M32.8439 0.519531C33.1856 5.94458 37.8588 7.08629 42.4586 8.71153C43.6889 9.14695 46.0179 9.92412 46.9065 11.0608C46.9065 11.6759 46.8634 12.1316 46.9065 12.6734C46.6482 12.4379 46.4027 12.1519 46.228 12.0126C45.6761 11.5747 45.0002 10.9469 44.337 10.5874C39.0588 7.74449 31.1452 7.56981 29.7883 0.519531C29.9959 0.519531 31.8287 0.519531 32.8439 0.519531Z" fill="#FEFEFE"/>
<path d="M35.4238 0.519531H37.5351C38.1933 5.4889 43.8588 7.29388 46.9068 7.82043V9.57984C42.626 8.50647 35.5023 5.77243 35.4238 0.519531Z" fill="#FEFEFE"/>
<path d="M40.0156 0.519531H41.8915C42.0282 1.52961 42.2408 2.19033 42.694 2.84853C43.3623 3.8181 45.1369 5.02563 46.9064 5.28132C46.9089 5.73952 46.9064 5.94204 46.9064 6.36734C43.7496 5.79015 40.4283 3.87379 40.0182 0.519531" fill="#FEFEFE"/>
<path d="M43.3975 0.519531H46.9061V3.78772C45.0075 3.41812 43.8152 2.37007 43.3975 0.519531Z" fill="#FEFEFE"/>
<path d="M0.0023988 11.8633C4.10599 18.0655 11.9056 20.8603 16.8978 26.0651C23.8949 33.3635 23.1506 42.1959 25.3404 47.3881C21.4899 47.378 20.5077 47.378 17.8369 47.3881C13.341 37.5076 16.8876 31.0193 0.0023988 16.8808C0.0023988 15.3163 -0.00519576 11.9418 0.0023988 11.8633Z" fill="#FEFEFE"/>
<path d="M0.00292969 21.2983C2.19776 24.3716 4.9723 28.0727 5.87605 32.8674C6.79752 37.7608 6.33426 43.1276 8.45567 47.3907H0.00292969V21.2983Z" fill="#FEFEFE"/>
<path d="M101 46.9653H54.0732V47.3906H101V46.9653Z" fill="#FEFEFE"/>
<path d="M68.3965 40.8694V24.5994H75.2291V26.9081H70.9559V31.5231H74.6342V33.8318H70.9559V38.5607H75.2291V40.8694H68.3965Z" fill="#FEFEFE"/>
<path d="M85.0084 31.7863L83.0896 31.0091C81.9478 30.5509 81.7403 30.1408 81.7403 28.8143C81.7403 28.1055 81.877 27.5587 82.1732 27.2144C82.4238 26.941 82.7453 26.7562 83.2693 26.7562C83.7933 26.7562 84.1832 26.9384 84.411 27.2372C84.7376 27.6498 84.7933 28.189 84.7983 28.8675H84.7958V29.5332H87.3552V28.9738H87.3577C87.3577 27.4194 87.0615 26.2549 86.216 25.4322C85.5527 24.7917 84.5933 24.45 83.2921 24.45C82.1276 24.45 81.2137 24.8145 80.5049 25.4322C79.6138 26.2321 79.1784 27.4194 79.1784 28.8826C79.1784 31.3964 79.7961 32.2875 81.4415 32.9736L83.3832 33.7735C84.6388 34.2773 84.9148 34.7102 84.9148 36.4468C84.9148 37.3151 84.8236 37.8645 84.4819 38.2518C84.2313 38.548 83.8414 38.71 83.249 38.71C82.6567 38.71 82.2896 38.5277 82.0618 38.2771C81.6972 37.867 81.6036 37.3177 81.6036 36.4493V35.3304H79.0442V36.5531C79.0543 38.2037 79.3328 39.1859 80.0948 39.9454C80.7808 40.6314 81.8314 41.0187 83.249 41.0187C84.6667 41.0187 85.7628 40.5859 86.4261 39.9454C87.2488 39.1454 87.4767 38.0265 87.4767 36.3582C87.4767 33.6166 86.9501 32.5888 85.0084 31.7888V31.7863Z" fill="#FEFEFE"/>
<path d="M60.5641 24.5994H58.073L54.0732 40.8694H56.7693L57.4098 37.6468H60.4603C60.3033 36.6443 59.7312 35.652 59.3413 35.3381H57.9136L59.3084 28.5283L60.7033 35.3381L61.1843 37.6468L61.8475 40.8694H64.5208L60.5666 24.5994H60.5641Z" fill="#FEFEFE"/>
<path d="M97.0356 24.5994H94.5446L90.5448 40.8694H93.2409L93.8813 37.6468H96.9318C96.7749 36.6443 96.2027 35.652 95.8129 35.3381H94.3851L95.78 28.5283L97.1748 35.3381L97.6558 37.6468L98.3191 40.8694H100.992L97.0381 24.5994H97.0356Z" fill="#FEFEFE"/>
</g>
<defs>
<clipPath id="clip0_3403_1411">
<rect width="101" height="46.8711" fill="white" transform="translate(0 0.519531)"/>
</clipPath>
</defs>
</svg>
