<svg width="20" height="16" viewBox="0 0 20 16" fill="none" xmlns="http://www.w3.org/2000/svg">
<path d="M6.25583 16C13.6868 16 17.7518 9.84279 17.7518 4.51261C17.7518 4.34031 17.7518 4.16555 17.7444 3.99326C18.5359 3.42035 19.2189 2.71105 19.7616 1.8986C19.0223 2.22455 18.2389 2.43938 17.4368 2.5361C18.2817 2.03107 18.9145 1.23644 19.2176 0.299914C18.4238 0.770195 17.5549 1.10033 16.6491 1.27586C16.0401 0.62731 15.2343 0.197664 14.3564 0.0534748C13.4785 -0.0907147 12.5776 0.0585995 11.7932 0.478289C11.0088 0.897978 10.3846 1.56462 10.0174 2.37495C9.65022 3.18529 9.56049 4.09409 9.7621 4.96059C8.15572 4.88004 6.5842 4.46273 5.14948 3.73572C3.71476 3.00871 2.44887 1.98825 1.43393 0.740506C0.918686 1.63041 0.761443 2.68305 0.994135 3.68468C1.22683 4.6863 1.83201 5.56182 2.68679 6.13345C2.04626 6.11169 1.4198 5.93969 0.857963 5.63132V5.6867C0.859067 6.61894 1.18202 7.5222 1.77222 8.24381C2.36242 8.96542 3.18368 9.46112 4.09717 9.64711C3.75044 9.74263 3.39226 9.79025 3.03262 9.78864C2.77907 9.78941 2.52603 9.76592 2.27696 9.71849C2.53515 10.521 3.03787 11.2226 3.71473 11.7251C4.39158 12.2276 5.20867 12.5058 6.05153 12.5208C4.61968 13.6454 2.85097 14.2554 1.03026 14.2524C0.709442 14.2538 0.388847 14.2353 0.0703125 14.197C1.91823 15.3751 4.06431 16.0007 6.25583 16Z" fill="#1D4138"/>
</svg>
