<svg width="25" height="34" viewBox="0 0 25 34" fill="none" xmlns="http://www.w3.org/2000/svg">
<path d="M23.8294 6.27593C23.9318 6.12251 23.9413 5.92521 23.8543 5.7626C23.7673 5.59999 23.5979 5.49848 23.4135 5.49848H21.7439L20.7849 4.56254C20.6294 4.41076 20.3936 4.37681 20.2016 4.47854L17.704 5.80167C17.6214 5.84544 17.5527 5.91152 17.5057 5.99238L16.9098 7.01832L15.5094 6.79271L14.9608 6.49134C14.8638 6.43805 14.7519 6.41845 14.6426 6.43561L14.0708 6.52535L13.4129 6.48807L10.0768 3.93523C9.98961 3.86848 9.88283 3.83231 9.77299 3.83231H8.07668L7.43408 3.10767L7.39102 1.52545C7.38553 1.32398 7.25962 1.1455 7.07166 1.07276L5.67878 0.533702C5.48397 0.458307 5.26282 0.51197 5.12422 0.668266L3.29912 2.72647L3.29912 2.72646L3.2973 2.72853L1.66427 4.5907C1.52207 4.75285 1.49987 4.98791 1.6092 5.17382L2.86503 7.30939L3.18434 8.79856C3.18855 8.81819 3.19393 8.83754 3.20047 8.85653L4.38568 12.2983L3.47205 14.3846L2.14995 16.408C2.14666 16.413 2.14346 16.4181 2.14036 16.4232L1.3719 17.6974C1.32489 17.7753 1.30005 17.8646 1.30005 17.9556V18.1026C1.30005 18.1867 1.32126 18.2695 1.36173 18.3432L1.96169 19.4363L1.78208 21.5894C1.7668 21.7726 1.85327 21.9494 2.00727 22.0498L11.6475 28.3352L11.7721 29.9033C11.783 30.0403 11.8498 30.1668 11.9568 30.253L15.8472 33.3893C16.0408 33.5454 16.3198 33.5354 16.5018 33.3658L17.6065 32.3368C17.6764 32.2716 17.7262 32.1878 17.7499 32.0952L18.255 30.1277L19.113 28.9297C19.1571 28.8681 19.1867 28.7973 19.1994 28.7226L19.525 26.8124L20.2386 26.68C20.3916 26.6516 20.5227 26.5536 20.5932 26.4149L21.2059 25.2092L23.0174 24.0078C23.2414 23.8592 23.3079 23.5601 23.1679 23.3307L21.6549 20.8514L21.5613 9.67635L23.8294 6.27593Z" stroke="#0DB04A" stroke-linecap="round" stroke-linejoin="round"/>
</svg>
